<svg width="192" height="96" viewBox="0 0 192 96" fill="none" xmlns="http://www.w3.org/2000/svg">
<g clip-path="url(#clip0_7_60)">
<path d="M51.1475 51.2922H52.7362L59.7243 69.665H58.2161L56.1439 64.0914H47.7686L45.6964 69.665H44.2343L51.1475 51.2922ZM55.6777 62.8323L51.9649 52.7073H51.9131L48.2233 62.8323H55.6719H55.6777Z" fill="#222221"/>
<path d="M62.7981 69.382C61.9635 68.9893 61.3188 68.4463 60.8755 67.7648C60.4323 67.0775 60.1905 66.3151 60.156 65.4776H61.5145C61.5663 66.5057 61.9577 67.3258 62.6945 67.9439C63.4313 68.5619 64.4674 68.868 65.8201 68.868C67.0001 68.868 67.8924 68.6138 68.4968 68.1114C69.1012 67.6089 69.4062 66.9504 69.4062 66.1476C69.4062 65.5642 69.2623 65.1079 68.9688 64.7729C68.681 64.4379 68.3126 64.1838 67.8693 64.0163C67.4261 63.843 66.8217 63.664 66.0504 63.4792L65.3596 63.3001C64.2659 63.0113 63.414 62.7456 62.7981 62.5031C62.1822 62.2605 61.6699 61.9197 61.2612 61.4634C60.8525 61.0071 60.6453 60.4122 60.6453 59.6787C60.6453 58.6333 61.0367 57.8131 61.8253 57.2124C62.6081 56.6117 63.7191 56.3114 65.1524 56.3114C66.7411 56.3114 67.9557 56.6695 68.8018 57.3915C69.648 58.1134 70.1373 59.026 70.2754 60.1408H68.9458C68.5543 58.3272 67.288 57.4146 65.1582 57.4146C64.1854 57.4146 63.4198 57.5994 62.8557 57.9691C62.2916 58.3387 62.0095 58.8701 62.0095 59.5747C62.0095 60.1234 62.1764 60.5508 62.5103 60.857C62.8442 61.1631 63.2356 61.3941 63.6903 61.5385C64.1451 61.6829 64.9049 61.8966 65.9813 62.1681C67.075 62.4568 67.9384 62.7399 68.5773 63.0055C69.2163 63.2712 69.7401 63.6524 70.1546 64.1492C70.5632 64.6459 70.7705 65.2985 70.7705 66.1014C70.7705 67.2854 70.3272 68.2269 69.4408 68.9257C68.5543 69.6304 67.334 69.9769 65.7798 69.9769C64.6343 69.9769 63.6443 69.7806 62.8096 69.3878L62.7981 69.382Z" fill="#222221"/>
<path d="M74.6041 69.382C73.7695 68.9893 73.1248 68.4463 72.6815 67.7648C72.2383 67.0775 71.9965 66.3151 71.962 65.4776H73.3205C73.3723 66.5057 73.7637 67.3258 74.5005 67.9439C75.2373 68.5619 76.2734 68.868 77.6261 68.868C78.8062 68.868 79.6984 68.6138 80.3028 68.1114C80.9072 67.6089 81.2123 66.9504 81.2123 66.1476C81.2123 65.5642 81.0684 65.1079 80.7748 64.7729C80.487 64.4379 80.1186 64.1838 79.6754 64.0163C79.2321 63.843 78.6277 63.664 77.8564 63.4792L77.1656 63.3001C76.072 63.0113 75.22 62.7456 74.6041 62.5031C73.9882 62.2605 73.4759 61.9197 73.0672 61.4634C72.6585 61.0071 72.4513 60.4122 72.4513 59.6787C72.4513 58.6333 72.8427 57.8131 73.6313 57.2124C74.4142 56.6117 75.5251 56.3114 76.9584 56.3114C78.5471 56.3114 79.7617 56.6695 80.6079 57.3915C81.454 58.1134 81.9433 59.026 82.0815 60.1408H80.7518C80.3603 58.3272 79.094 57.4146 76.9642 57.4146C75.9914 57.4146 75.2258 57.5994 74.6617 57.9691C74.0976 58.3387 73.8155 58.8701 73.8155 59.5747C73.8155 60.1234 73.9824 60.5508 74.3163 60.857C74.6502 61.1631 75.0416 61.3941 75.4963 61.5385C75.9511 61.6829 76.7109 61.8966 77.7873 62.1681C78.881 62.4568 79.7444 62.7399 80.3834 63.0055C81.0223 63.2712 81.5461 63.6524 81.9606 64.1492C82.3693 64.6459 82.5765 65.2985 82.5765 66.1014C82.5765 67.2854 82.1333 68.2269 81.2468 68.9257C80.3603 69.6304 79.14 69.9769 77.5858 69.9769C76.4404 69.9769 75.4503 69.7806 74.6156 69.3878L74.6041 69.382Z" fill="#222221"/>
<path d="M86.8821 69.1394C85.9496 68.5676 85.2416 67.759 84.7466 66.7251C84.2515 65.6913 84.004 64.4957 84.004 63.1384C84.004 61.7811 84.2515 60.5913 84.7466 59.5516C85.2416 58.5177 85.9554 57.7091 86.8821 57.1373C87.8146 56.5655 88.9083 56.2767 90.1747 56.2767C91.4411 56.2767 92.5117 56.5655 93.4385 57.1373C94.371 57.7091 95.079 58.5177 95.574 59.5516C96.0691 60.5855 96.3166 61.7811 96.3166 63.1384C96.3166 64.4957 96.0691 65.6855 95.574 66.7251C95.079 67.759 94.3652 68.5676 93.4385 69.1394C92.5117 69.7112 91.418 70 90.1747 70C88.9314 70 87.8146 69.7112 86.8821 69.1394ZM86.6001 67.2912C87.4462 68.3597 88.6378 68.8968 90.1747 68.8968C91.7116 68.8968 92.8916 68.3597 93.7205 67.2912C94.5494 66.2227 94.9639 64.8365 94.9639 63.1442C94.9639 61.4518 94.5494 60.0714 93.7205 59.0087C92.8916 57.9459 91.7116 57.4146 90.1747 57.4146C88.6378 57.4146 87.429 57.9459 86.5886 59.0087C85.7482 60.0714 85.3337 61.4518 85.3337 63.1442C85.3337 64.8365 85.7539 66.2227 86.6001 67.2912Z" fill="#222221"/>
<path d="M100.899 69.1394C99.9603 68.5676 99.2292 67.7589 98.7112 66.7251C98.1874 65.6912 97.9283 64.4956 97.9283 63.1383C97.9283 61.781 98.1874 60.597 98.7112 59.5689C99.2292 58.5408 99.9603 57.7379 100.899 57.1661C101.837 56.5943 102.913 56.3055 104.122 56.3055C105.129 56.3055 106.027 56.5135 106.822 56.9351C107.616 57.3567 108.249 57.9228 108.727 58.6447C109.205 59.3667 109.493 60.158 109.596 61.0359H108.238C108.203 60.4872 108.031 59.9327 107.725 59.3783C107.42 58.8238 106.96 58.3559 106.344 57.9805C105.728 57.6051 104.985 57.4145 104.116 57.4145C103.057 57.4145 102.159 57.6802 101.428 58.2116C100.691 58.7429 100.15 59.4476 99.7876 60.3197C99.4307 61.1919 99.2523 62.1333 99.2523 63.1441C99.2523 64.1548 99.4307 65.0963 99.7876 65.9684C100.144 66.8406 100.691 67.5452 101.428 68.0766C102.159 68.608 103.057 68.8737 104.116 68.8737C105.003 68.8737 105.751 68.6831 106.355 68.3076C106.96 67.9322 107.42 67.4586 107.725 66.8926C108.031 66.3265 108.203 65.7547 108.238 65.1714H109.596C109.527 66.0609 109.257 66.8752 108.79 67.6145C108.318 68.3539 107.679 68.9314 106.868 69.3588C106.056 69.7862 105.141 69.9999 104.116 69.9999C102.902 69.9999 101.831 69.7112 100.893 69.1394H100.899Z" fill="#222221"/>
<path d="M111.502 52.0372H113.344V53.8855H111.502V52.0372ZM111.784 56.5597H113.061V69.665H111.784V56.5597Z" fill="#222221"/>
<path d="M118.219 69.1278C117.304 68.5445 116.607 67.7359 116.118 66.702C115.629 65.6681 115.387 64.4783 115.387 63.1441C115.387 61.8099 115.64 60.5508 116.141 59.5227C116.642 58.4946 117.361 57.6975 118.294 57.1315C119.226 56.5655 120.303 56.2825 121.535 56.2825C122.766 56.2825 123.751 56.5481 124.608 57.0795C125.46 57.6109 126.117 58.3444 126.566 59.2743C127.02 60.21 127.245 61.267 127.245 62.4452C127.245 62.838 127.233 63.1037 127.222 63.2423H116.751V63.2943C116.751 64.8884 117.16 66.2168 117.977 67.2911C118.795 68.3596 119.975 68.8968 121.512 68.8968C122.789 68.8968 123.774 68.5618 124.459 67.8976C125.144 67.2276 125.57 66.4941 125.737 65.6854H127.066C126.744 66.9677 126.111 68.0131 125.173 68.8044C124.234 69.5957 123.002 70 121.483 70C120.216 70 119.129 69.7112 118.219 69.1278ZM125.892 62.1391C125.892 61.267 125.725 60.4699 125.391 59.7479C125.057 59.026 124.557 58.4542 123.883 58.0267C123.21 57.5993 122.404 57.3856 121.466 57.3856C120.527 57.3856 119.756 57.5993 119.059 58.0267C118.363 58.4542 117.81 59.026 117.419 59.7479C117.027 60.4699 116.803 61.2612 116.751 62.1391H125.892ZM122.41 51.0092H124.021L121.92 54.3476H120.792L122.404 51.0092H122.41Z" fill="#222221"/>
<path d="M131.217 69.382C130.382 68.9893 129.737 68.4463 129.294 67.7648C128.851 67.0775 128.609 66.3151 128.574 65.4776H129.933C129.985 66.5057 130.376 67.3258 131.113 67.9439C131.85 68.5619 132.886 68.868 134.239 68.868C135.419 68.868 136.311 68.6138 136.915 68.1114C137.52 67.6089 137.825 66.9504 137.825 66.1476C137.825 65.5642 137.681 65.1079 137.387 64.7729C137.099 64.4379 136.731 64.1838 136.288 64.0163C135.845 63.843 135.24 63.664 134.469 63.4792L133.778 63.3001C132.684 63.0113 131.832 62.7456 131.217 62.5031C130.601 62.2605 130.088 61.9197 129.68 61.4634C129.271 61.0071 129.064 60.4122 129.064 59.6787C129.064 58.6333 129.455 57.8131 130.244 57.2124C131.027 56.6117 132.138 56.3114 133.571 56.3114C135.16 56.3114 136.374 56.6695 137.22 57.3915C138.066 58.1134 138.556 59.026 138.694 60.1408H137.364C136.973 58.3272 135.706 57.4146 133.577 57.4146C132.604 57.4146 131.838 57.5994 131.274 57.9691C130.71 58.3387 130.428 58.8701 130.428 59.5747C130.428 60.1234 130.595 60.5508 130.929 60.857C131.263 61.1631 131.654 61.3941 132.109 61.5385C132.564 61.6829 133.323 61.8966 134.4 62.1681C135.493 62.4568 136.357 62.7399 136.996 63.0055C137.635 63.2712 138.159 63.6524 138.573 64.1492C138.982 64.6459 139.189 65.2985 139.189 66.1014C139.189 67.2854 138.746 68.2269 137.859 68.9257C136.973 69.6304 135.752 69.9769 134.198 69.9769C133.053 69.9769 132.063 69.7806 131.228 69.3878L131.217 69.382Z" fill="#222221"/>
<path d="M148.382 68.3308C146.989 67.2334 146.235 65.6739 146.114 63.6524H147.599C147.72 65.2465 148.295 66.4941 149.326 67.3893C150.356 68.2904 151.812 68.7351 153.689 68.7351C155.329 68.7351 156.544 68.3655 157.338 67.6319C158.133 66.8926 158.536 65.9454 158.553 64.7787C158.553 63.8372 158.34 63.1037 157.914 62.5839C157.488 62.0641 156.878 61.6598 156.083 61.3767C155.289 61.0937 154.126 60.7876 152.589 60.4642C151.375 60.2043 150.362 59.9039 149.544 59.5516C148.727 59.1993 148.071 58.7025 147.587 58.0614C147.098 57.4203 146.856 56.5944 146.856 55.5836C146.856 54.1454 147.397 53.0192 148.485 52.2048C149.567 51.3904 151.018 50.9861 152.825 50.9861C154.754 50.9861 156.296 51.4597 157.459 52.4127C158.622 53.3657 159.261 54.7057 159.382 56.4327H157.897C157.592 53.6429 155.905 52.2452 152.854 52.2452C151.438 52.2452 150.333 52.534 149.539 53.1174C148.744 53.7007 148.347 54.5151 148.347 55.5605C148.347 56.3807 148.554 57.0333 148.975 57.5127C149.395 57.9921 149.947 58.356 150.638 58.6044C151.329 58.8527 152.29 59.1069 153.516 59.361C155.001 59.6671 156.199 60.0137 157.114 60.4006C158.029 60.7876 158.743 61.3248 159.267 62.0179C159.785 62.7109 160.05 63.6235 160.05 64.7556C160.05 65.7317 159.808 66.6154 159.33 67.4009C158.852 68.1864 158.138 68.816 157.194 69.278C156.245 69.7401 155.099 69.9711 153.752 69.9711C151.565 69.9711 149.78 69.4224 148.387 68.325L148.382 68.3308Z" fill="#222221"/>
<path d="M167.423 51.2922H169.012L176 69.665H174.492L172.42 64.0914H164.044L161.972 69.665H160.51L167.423 51.2922ZM171.953 62.8323L168.241 52.7073H168.189L164.499 62.8323H171.948H171.953Z" fill="#222221"/>
<path d="M48.091 45.7244C46.8073 44.9042 45.8057 43.7664 45.092 42.3167C44.3724 40.8669 44.0155 39.2266 44.0155 37.3899C44.0155 35.5532 44.3724 33.9129 45.092 32.4632C45.8115 31.0134 46.8131 29.8814 48.091 29.067C49.3746 28.2526 50.8424 27.8425 52.5002 27.8425C53.9508 27.8425 55.2459 28.1313 56.3742 28.7031C57.5024 29.2807 58.4003 30.0547 59.0681 31.0308C59.7358 32.0069 60.1445 33.087 60.2999 34.271H57.888C57.6636 33.1216 57.1397 32.1051 56.3108 31.2214C55.4819 30.3377 54.2098 29.8929 52.5002 29.8929C51.113 29.8929 49.9732 30.2453 49.0638 30.9499C48.1543 31.6546 47.4923 32.5729 47.0606 33.705C46.6346 34.837 46.4216 36.0615 46.4216 37.3841C46.4216 38.7068 46.6346 39.937 47.0606 41.0749C47.4865 42.2127 48.1543 43.1368 49.0638 43.8415C49.9675 44.5461 51.113 44.8985 52.5002 44.8985C54.2616 44.8985 55.5798 44.4133 56.449 43.443C57.3182 42.4726 57.8017 41.3117 57.888 39.9544H60.2999C60.1618 41.3117 59.7646 42.5188 59.0969 43.5816C58.4291 44.6443 57.5312 45.476 56.4029 46.0652C55.2747 46.6543 53.9738 46.9546 52.506 46.9546C50.8482 46.9546 49.3803 46.5446 48.0967 45.7186L48.091 45.7244Z" fill="#222221"/>
<path d="M64.6574 46.0882C63.6961 45.4875 62.9708 44.6616 62.4758 43.6046C61.9807 42.5477 61.7332 41.3521 61.7332 40.0121C61.7332 38.6721 61.9922 37.4014 62.516 36.356C63.0399 35.3106 63.7767 34.502 64.7322 33.936C65.6877 33.3699 66.8102 33.0869 68.0938 33.0869C69.3775 33.0869 70.4251 33.3584 71.3403 33.9013C72.2556 34.4384 72.9521 35.1951 73.4298 36.1654C73.9076 37.1357 74.1494 38.262 74.1494 39.55C74.1494 40.0987 74.1379 40.4395 74.1264 40.5781H63.8918C63.9263 41.8488 64.3005 42.9346 65.02 43.8472C65.7395 44.754 66.7699 45.2103 68.1226 45.2103C69.2508 45.2103 70.12 44.9273 70.7359 44.3613C71.3518 43.7952 71.7375 43.1946 71.8872 42.5592H73.9652C73.6083 43.8819 72.9348 44.9504 71.9505 45.7648C70.9662 46.5792 69.6825 46.9892 68.0881 46.9892C66.7526 46.9892 65.6071 46.6889 64.6516 46.0882H64.6574ZM71.9678 38.7761C71.9678 38.0541 71.8066 37.3957 71.4785 36.795C71.1561 36.1943 70.6899 35.7207 70.0797 35.3799C69.4753 35.0391 68.7731 34.8659 67.9902 34.8659C66.862 34.8659 65.9122 35.2297 65.1409 35.9575C64.3696 36.6852 63.9551 37.6267 63.886 38.7761H71.962H71.9678Z" fill="#222221"/>
<path d="M78.5068 46.0882C77.5455 45.4875 76.8203 44.6616 76.3252 43.6046C75.8302 42.5477 75.5827 41.3521 75.5827 40.0121C75.5827 38.6721 75.8417 37.4014 76.3655 36.356C76.8893 35.3106 77.6261 34.502 78.5817 33.936C79.5372 33.3699 80.6597 33.0869 81.9433 33.0869C83.2269 33.0869 84.2746 33.3584 85.1898 33.9013C86.1051 34.4384 86.8016 35.1951 87.2793 36.1654C87.7571 37.1357 87.9989 38.262 87.9989 39.55C87.9989 40.0987 87.9873 40.4395 87.9758 40.5781H77.7413C77.7758 41.8488 78.15 42.9346 78.8695 43.8472C79.589 44.754 80.6194 45.2103 81.9721 45.2103C83.1003 45.2103 83.9695 44.9273 84.5854 44.3613C85.2013 43.7952 85.587 43.1946 85.7367 42.5592H87.8147C87.4578 43.8819 86.7843 44.9504 85.8 45.7648C84.8157 46.5792 83.532 46.9892 81.9376 46.9892C80.6021 46.9892 79.4566 46.6889 78.5011 46.0882H78.5068ZM85.8172 38.7761C85.8172 38.0541 85.6561 37.3957 85.328 36.795C85.0056 36.1943 84.5394 35.7207 83.9292 35.3799C83.3248 35.0391 82.6225 34.8659 81.8397 34.8659C80.7115 34.8659 79.7617 35.2297 78.9904 35.9575C78.219 36.6852 77.8046 37.6267 77.7355 38.7761H85.8115H85.8172Z" fill="#222221"/>
<path d="M92.4081 46.0882C91.4526 45.5049 90.71 44.6905 90.192 43.6451C89.6682 42.5997 89.4091 41.3983 89.4091 40.041C89.4091 38.6837 89.6682 37.4881 90.192 36.4369C90.71 35.3915 91.4526 34.5771 92.4081 33.9937C93.3637 33.4104 94.4746 33.1216 95.741 33.1216C96.8001 33.1216 97.7441 33.3411 98.573 33.78C99.4019 34.219 100.07 34.8197 100.57 35.5936C101.077 36.3676 101.382 37.2397 101.48 38.2158H99.3271C99.258 37.3437 98.9357 36.5755 98.3658 35.9113C97.7902 35.2528 96.9152 34.9236 95.7352 34.9236C94.3019 34.9236 93.2428 35.4261 92.5693 36.4253C91.8901 37.4303 91.5562 38.6375 91.5562 40.041C91.5562 41.4445 91.8901 42.6516 92.5693 43.6566C93.2428 44.6616 94.3019 45.1641 95.7352 45.1641C96.9325 45.1641 97.8132 44.8291 98.3773 44.1591C98.9414 43.4891 99.258 42.6921 99.3271 41.7679H101.48C101.428 42.7614 101.146 43.6566 100.634 44.4421C100.121 45.2334 99.4422 45.8514 98.5961 46.2962C97.7499 46.7409 96.7944 46.9662 95.7352 46.9662C94.4689 46.9662 93.3579 46.6716 92.4024 46.094L92.4081 46.0882Z" fill="#222221"/>
<path d="M105.544 43.1715C105.544 43.8588 105.647 44.3208 105.855 44.5692C106.05 44.8002 106.448 44.9331 107.029 44.9331C107.311 44.9331 107.674 44.91 108.111 44.858V46.6081C107.61 46.6831 107.156 46.7351 106.741 46.7351C106.292 46.7351 105.889 46.6831 105.527 46.5792C105.037 46.4637 104.634 46.2442 104.312 45.9438C103.759 45.424 103.489 44.4652 103.489 43.0675V35.2759H103.483V28.1948H105.527L105.538 29.1016V43.1715H105.544Z" fill="#222221"/>
<path d="M111.035 46.0882C110.074 45.4875 109.349 44.6616 108.854 43.6046C108.359 42.5477 108.111 41.3521 108.111 40.0121C108.111 38.6721 108.37 37.4014 108.894 36.356C109.418 35.3106 110.155 34.502 111.11 33.936C112.066 33.3699 113.188 33.0869 114.472 33.0869C115.755 33.0869 116.803 33.3584 117.718 33.9013C118.633 34.4384 119.33 35.1951 119.808 36.1654C120.286 37.1357 120.527 38.262 120.527 39.55C120.527 40.0987 120.516 40.4395 120.504 40.5781H110.27C110.304 41.8488 110.678 42.9346 111.398 43.8472C112.117 44.754 113.148 45.2103 114.501 45.2103C115.629 45.2103 116.498 44.9273 117.114 44.3613C117.73 43.7952 118.115 43.1946 118.265 42.5592H120.343C119.986 43.8819 119.313 44.9504 118.328 45.7648C117.344 46.5792 116.06 46.9892 114.466 46.9892C113.131 46.9892 111.985 46.6889 111.03 46.0882H111.035ZM118.34 38.7761C118.34 38.0541 118.179 37.3957 117.851 36.795C117.528 36.1943 117.062 35.7207 116.452 35.3799C115.847 35.0391 115.145 34.8659 114.362 34.8659C113.234 34.8659 112.284 35.2297 111.513 35.9575C110.742 36.6852 110.327 37.6267 110.258 38.7761H118.334H118.34Z" fill="#222221"/>
<path d="M27.7312 26H26.4763V34.2883H27.7312V26Z" fill="#222221"/>
<path d="M27.7254 36.616H16V37.8751H27.7254V36.616Z" fill="#222221"/>
<path d="M22.3071 31.5442L21.42 32.4347L24.1312 35.1542L25.0184 34.2637L22.3071 31.5442Z" fill="#222221"/>
<path d="M24.1285 39.3368L21.3779 42.0823L22.2629 42.9749L25.0135 40.2295L24.1285 39.3368Z" fill="#222221"/>
<path d="M27.7197 40.7052H26.4648V48.491H27.7197V40.7052Z" fill="#222221"/>
<path d="M38.4147 36.6217H30.546V37.8808H38.4147V36.6217Z" fill="#222221"/>
<path d="M31.9018 31.5457L29.1858 34.2605L30.0714 35.1525L32.7874 32.4378L31.9018 31.5457Z" fill="#222221"/>
<path d="M30.0668 39.3282L29.1767 40.2157L31.9033 42.9688L32.7934 42.0813L30.0668 39.3282Z" fill="#222221"/>
</g>
<defs>
<clipPath id="clip0_7_60">
<rect width="160" height="44" fill="white" transform="translate(16 26)"/>
</clipPath>
</defs>
</svg>
